:SAMPLES-PER-SECOND 30
:FULLY-SPECIFIED
:DEGREES
232
root  -27.0048 40.8126 -6.13132 -120.844 85.6645 -108.471
RightUpLeg  -62.2726 -11.1387 11.5431
RightLeg  61.2262 -4.85677 -10.0306
RightFoot  -3.48236 -0.251383 3.32507
RightToes  0.00048216 0.542163 -0.142577
Spine  32.7354 -2.30142 -1.9728
Spine1  4.32238 -4.61168 5.74419
HEad  -1.81793 2.51558 3.03083
LeftShoulder1  7.722 -12.3787 -42.2238
LeftArm  -19.5114 -4.81086 -23.5175
LeftForeArm  45.9051 -51.9303 -10.7007
LeftHand  -0.25398 0.0180481 5.50724
RightShoulder  5.22094 9.17277 35.2212
RightArm  -3.85764 -17.1151 37.6066
RightForeArm  9.62781 16.291 5.57875
RightHand  -0.676721 0.272583 -13.9083
LeftUpLeg  12.4928 11.0953 4.70152
LeftLeg  12.3723 0.969038 -1.84583
LeftFoot  -10.8224 0.0609165 1.16286
LeftToes  1.06247e-005 4.65855e-005 -8.185e-006
233
root  -25.6648 40.5267 -6.13368 -134.857 85.235 -121.603
RightUpLeg  -61.3734 -11.6809 11.5577
RightLeg  56.7218 -5.28371 -9.0391
RightFoot  -2.71954 -0.2269 2.75733
RightToes  0.00048216 0.542163 -0.142577
Spine  33.9412 -2.04543 -2.81735
Spine1  4.66903 -4.98496 7.23536
HEad  -2.56665 1.94181 3.03897
LeftShoulder1  7.74281 -12.6456 -41.5967
LeftArm  -19.6993 -8.57569 -23.621
LeftForeArm  46.7707 -52.4254 -10.8607
LeftHand  -0.25398 0.0180481 5.50724
RightShoulder  5.18689 9.1787 34.9383
RightArm  -3.80904 -16.7981 37.4005
RightForeArm  10.171 16.0885 5.61211
RightHand  -0.656616 0.163525 -13.7495
LeftUpLeg  14.4839 11.5306 4.86906
LeftLeg  14.6576 -0.179447 -0.849339
LeftFoot  -13.2205 0.109301 1.89576
LeftToes  1.06247e-005 4.65855e-005 -8.185e-006
234
root  -24.2209 40.2231 -6.11862 -143.889 84.824 -130.138
RightUpLeg  -60.1286 -11.2179 10.6332
RightLeg  54.5778 -5.42652 -8.54616
RightFoot  -2.97181 -0.231436 2.88258
RightToes  0.00048216 0.542163 -0.142577
Spine  34.4395 -1.59054 -3.63499
Spine1  5.45652 -5.15737 8.67795
HEad  -3.66891 1.35461 2.97645
LeftShoulder1  7.75779 -12.9944 -40.7312
LeftArm  -19.6205 -12.3184 -23.9511
LeftForeArm  47.8227 -52.2153 -10.6905
LeftHand  -0.25398 0.0180481 5.50724
RightShoulder  5.11714 9.11528 34.596
RightArm  -3.40489 -16.2263 37.3158
RightForeArm  10.2331 16.32 5.56347
RightHand  -0.642706 0.028354 -13.777
LeftUpLeg  16.5142 11.5931 5.34046
LeftLeg  16.5671 -1.26184 -0.503854
LeftFoot  -15.63 0.156619 1.70891
LeftToes  1.06247e-005 4.65855e-005 -8.185e-006
235
root  -22.6677 40.0049 -6.08872 -148.324 84.3295 -134.994
RightUpLeg  -58.7634 -10.0541 9.46866
RightLeg  53.8808 -5.64105 -8.63824
RightFoot  -2.75827 -0.259185 3.16876
RightToes  0.00048216 0.542163 -0.142577
Spine  34.3176 -1.10273 -4.16953
Spine1  5.92346 -5.20906 10.1959
HEad  -4.98737 0.805753 2.95238
LeftShoulder1  7.6859 -13.2116 -39.7467
LeftArm  -18.994 -15.6444 -24.6521
LeftForeArm  49.141 -51.6321 -10.3399
LeftHand  -0.25398 0.0180481 5.50724
RightShoulder  4.9989 8.95413 34.1763
RightArm  -3.30409 -15.7879 37.3346
RightForeArm  10.7969 17.0102 5.31518
RightHand  -0.618359 -0.0617048 -13.4723
LeftUpLeg  18.1295 11.5221 6.16354
LeftLeg  17.6065 -2.26003 -0.669563
LeftFoot  -17.0974 0.160478 1.14812
LeftToes  1.06247e-005 4.65855e-005 -8.185e-006
236
root  -21.0286 39.9881 -6.08788 -148.404 83.1599 -136.796
RightUpLeg  -58.1661 -9.46961 9.56047
RightLeg  53.7295 -5.91941 -8.98913
RightFoot  0.254196 -0.102664 1.1843
RightToes  0.00048216 0.542163 -0.142577
Spine  33.8696 -1.16435 -3.30747
Spine1  5.57171 -5.32816 11.4751
HEad  -6.86568 0.173547 2.97728
LeftShoulder1  7.63001 -13.3314 -39.121
LeftArm  -17.7372 -18.0831 -25.5032
LeftForeArm  50.3498 -51.2365 -10.0868
LeftHand  -0.25398 0.0180481 5.50724
RightShoulder  4.87165 8.78642 33.6935
RightArm  -3.97151 -16.0236 37.4048
RightForeArm  11.1695 18.5036 4.83753
RightHand  -0.617709 0.0618427 -13.1699
LeftUpLeg  18.8134 10.745 7.18785
LeftLeg  17.3208 -2.70565 -0.81728
LeftFoot  -16.6365 0.12924 0.670605
LeftToes  1.06247e-005 4.65855e-005 -8.185e-006
237
root  -19.3099 40.2435 -6.17944 -142.709 81.3088 -133.667
RightUpLeg  -58.6855 -9.77516 11.5428
RightLeg  54.1183 -5.81965 -8.97541
RightFoot  4.7785 0.510603 -3.35571
RightToes  0.00048216 0.542163 -0.142577
Spine  33.6194 -2.09973 0.146573
Spine1  4.42925 -5.27733 11.5941
HEad  -9.518 -0.665666 2.73093
LeftShoulder1  7.75806 -13.6316 -39.0753
LeftArm  -16.1647 -19.1384 -26.2489
LeftForeArm  51.0976 -51.2958 -10.0611
LeftHand  -0.25398 0.0180481 5.50724
RightShoulder  4.83216 8.81611 33.2801
RightArm  -5.41065 -16.7574 37.3307
RightForeArm  10.0208 20.3986 4.47793
RightHand  -0.683049 0.421121 -13.6827
LeftUpLeg  19.0017 9.49277 8.86637
LeftLeg  15.6819 -2.99879 -0.915798
LeftFoot  -14.0387 0.0675083 -0.877155
LeftToes  1.06247e-005 4.65855e-005 -8.185e-006
238
root  -17.5672 40.7926 -6.35786 -133.899 79.5008 -127.376
RightUpLeg  -59.2398 -9.98373 14.2371
RightLeg  55.0289 -5.36427 -8.60695
RightFoot  6.76422 1.21946 -7.41938
RightToes  0.00048216 0.542163 -0.142577
Spine  33.9655 -3.55684 5.44793
Spine1  2.63318 -4.78446 10.4925
HEad  -12.2964 -1.39529 1.80745
LeftShoulder1  8.00396 -14.1344 -39.1744
LeftArm  -14.6785 -18.4169 -27.1441
LeftForeArm  51.1987 -51.4496 -10.1186
LeftHand  -0.25398 0.0180481 5.50724
RightShoulder  4.92167 9.15734 32.9314
RightArm  -6.7067 -16.8594 36.9711
RightForeArm  8.02746 21.3274 4.47603
RightHand  -0.774394 0.79899 -14.6105
LeftUpLeg  19.3287 9.05395 11.4258
LeftLeg  13.2774 -3.76111 -1.15468
LeftFoot  -8.64454 0.168439 -4.21719
LeftToes  1.06247e-005 4.65855e-005 -8.185e-006
